<svg xmlns="http://www.w3.org/2000/svg" width="1600" height="900" viewBox="0 0 1600 900" role="img" aria-labelledby="title desc">
  <title id="title">Roofing hail-season article header</title>
  <desc id="desc">Badger Automation Group editorial artwork for a roofing Google Business Profile article.</desc>
  <defs>
    <linearGradient id="bg" x1="0" y1="0" x2="1" y2="1">
      <stop offset="0%" stop-color="#130203"/>
      <stop offset="45%" stop-color="#6d060a"/>
      <stop offset="100%" stop-color="#d48a18"/>
    </linearGradient>
    <linearGradient id="panel" x1="0" y1="0" x2="1" y2="1">
      <stop offset="0%" stop-color="#fff9ed" stop-opacity="0.97"/>
      <stop offset="100%" stop-color="#f3e1bf" stop-opacity="0.9"/>
    </linearGradient>
  </defs>

  <rect width="1600" height="900" fill="url(#bg)"/>
  <circle cx="1330" cy="180" r="210" fill="#ffd588" fill-opacity="0.14"/>
  <g stroke="#ffffff" stroke-opacity="0.1">
    <path d="M0 185H1600M0 345H1600M0 505H1600M0 665H1600"/>
    <path d="M205 0V900M465 0V900M725 0V900M985 0V900M1245 0V900"/>
  </g>

  <rect x="88" y="108" width="860" height="686" rx="38" fill="url(#panel)"/>
  <rect x="1018" y="150" width="490" height="582" rx="36" fill="#210809" fill-opacity="0.85" stroke="#ffcb67" stroke-opacity="0.34"/>

  <text x="146" y="190" fill="#8d1807" font-family="Rubik, Arial, sans-serif" font-size="26" font-weight="700" letter-spacing="5">BADGER AUTOMATION GROUP</text>
  <text x="146" y="282" fill="#22090a" font-family="Rubik, Arial, sans-serif" font-size="76" font-weight="800">Roofing GBP</text>
  <text x="146" y="360" fill="#22090a" font-family="Rubik, Arial, sans-serif" font-size="76" font-weight="800">before hail</text>
  <text x="146" y="438" fill="#a60000" font-family="Rubik, Arial, sans-serif" font-size="84" font-weight="800">demand spikes</text>
  <text x="146" y="514" fill="#4d2921" font-family="Rubik, Arial, sans-serif" font-size="28" font-weight="500">Service areas, storm-language compliance, photos, posts,</text>
  <text x="146" y="552" fill="#4d2921" font-family="Rubik, Arial, sans-serif" font-size="28" font-weight="500">reviews, and landing pages before the next ugly weather week.</text>

  <g transform="translate(1085 214)">
    <path d="M130 34C182 34 224 72 224 120C224 124 224 128 223 132C260 139 288 171 288 210C288 255 252 291 207 291H76C34 291 0 257 0 215C0 180 24 151 58 142C59 85 92 34 130 34Z" fill="#fff8ea"/>
    <circle cx="54" cy="315" r="11" fill="#ffcb67"/>
    <circle cx="108" cy="338" r="11" fill="#ffcb67"/>
    <circle cx="166" cy="316" r="11" fill="#ffcb67"/>
    <circle cx="220" cy="340" r="11" fill="#ffcb67"/>
    <circle cx="260" cy="314" r="11" fill="#ffcb67"/>
    <path d="M176 106L134 198H182L142 278" fill="none" stroke="#a60000" stroke-width="18" stroke-linecap="round" stroke-linejoin="round"/>
  </g>

  <g transform="translate(1050 500)">
    <path d="M42 150L196 44L350 150" fill="none" stroke="#ffcb67" stroke-width="22" stroke-linecap="round" stroke-linejoin="round"/>
    <path d="M88 150H304L270 210H122Z" fill="#fff7e7"/>
    <rect x="152" y="172" width="88" height="48" rx="10" fill="#a60000"/>
    <path d="M0 258C52 204 118 176 188 176H488V292H0Z" fill="#ffb52d"/>
    <rect x="166" y="206" width="168" height="46" rx="12" fill="#fff8ea"/>
    <rect x="74" y="254" width="322" height="64" rx="22" fill="#8c0d0d"/>
    <circle cx="144" cy="326" r="32" fill="#121212"/>
    <circle cx="348" cy="326" r="32" fill="#121212"/>
    <rect x="182" y="266" width="112" height="18" rx="9" fill="#ffe6b5"/>
  </g>

  <text x="146" y="700" fill="#8d1807" font-family="Rubik, Arial, sans-serif" font-size="22" font-weight="700" letter-spacing="4">CHECKLIST</text>
  <text x="146" y="744" fill="#22090a" font-family="Rubik, Arial, sans-serif" font-size="28" font-weight="600">Areas · Hours · Posts · Photos · Reviews · Landing pages</text>
</svg>
