<svg xmlns="http://www.w3.org/2000/svg" width="1200" height="630" viewBox="0 0 1200 630" role="img" aria-labelledby="title desc">
  <title id="title">Pest control tick season social card</title>
  <desc id="desc">Badger Automation Group social image for a pest control Google Business Profile article.</desc>
  <defs>
    <linearGradient id="bg" x1="0" y1="0" x2="1" y2="1">
      <stop offset="0%" stop-color="#130202"/>
      <stop offset="56%" stop-color="#8f1010"/>
      <stop offset="100%" stop-color="#dfa12a"/>
    </linearGradient>
  </defs>

  <rect width="1200" height="630" fill="url(#bg)"/>
  <circle cx="1018" cy="116" r="84" fill="#ffd989" fill-opacity="0.95"/>
  <circle cx="946" cy="92" r="174" fill="#ffd989" fill-opacity="0.16"/>

  <g stroke="#ffffff" stroke-opacity="0.12">
    <path d="M0 160H1200M0 315H1200M0 470H1200"/>
    <path d="M180 0V630M370 0V630M560 0V630M750 0V630M940 0V630"/>
  </g>

  <rect x="62" y="64" width="694" height="502" rx="30" fill="#fff8ea" fill-opacity="0.97"/>
  <text x="104" y="132" fill="#8e1b00" font-family="Rubik, Arial, sans-serif" font-size="21" font-weight="700" letter-spacing="4">BADGER AUTOMATION GROUP</text>
  <text x="104" y="224" fill="#210707" font-family="Rubik, Arial, sans-serif" font-size="62" font-weight="800">Pest control GBP</text>
  <text x="104" y="290" fill="#210707" font-family="Rubik, Arial, sans-serif" font-size="62" font-weight="800">before tick</text>
  <text x="104" y="358" fill="#a60000" font-family="Rubik, Arial, sans-serif" font-size="68" font-weight="800">season peaks</text>
  <text x="104" y="430" fill="#53302a" font-family="Rubik, Arial, sans-serif" font-size="28" font-weight="500">Service lines, local proof, reviews,</text>
  <text x="104" y="466" fill="#53302a" font-family="Rubik, Arial, sans-serif" font-size="28" font-weight="500">and landing pages for SE Wisconsin.</text>

  <g transform="translate(826 110)">
    <rect x="0" y="0" width="304" height="404" rx="28" fill="#1d0707" fill-opacity="0.86" stroke="#ffd17a" stroke-opacity="0.42"/>
    <path d="M150 34L236 66V176C236 246 192 306 150 330C108 306 64 246 64 176V66Z" fill="#fff8ea"/>
    <path d="M150 92C174 92 194 111 194 134C194 151 184 166 170 173C184 180 194 195 194 212C194 236 174 256 150 256C126 256 106 236 106 212C106 195 116 180 130 173C116 166 106 151 106 134C106 111 126 92 150 92Z" fill="#a60000"/>
    <circle cx="150" cy="134" r="14" fill="#fff1d1"/>
    <circle cx="150" cy="212" r="14" fill="#fff1d1"/>
    <path d="M150 148V198M124 160L92 146M176 160L208 146M124 186L90 200M176 186L210 200M124 226L98 252M176 226L202 252" stroke="#fff1d1" stroke-width="8" stroke-linecap="round"/>
    <rect x="60" y="352" width="184" height="16" rx="8" fill="#b98f8f"/>
  </g>

  <text x="828" y="558" fill="#fff1d2" font-family="Rubik, Arial, sans-serif" font-size="18" font-weight="600" letter-spacing="3">MILWAUKEE + SE WISCONSIN</text>
</svg>
